<svg xmlns="http://www.w3.org/2000/svg" xmlns:xlink="http://www.w3.org/1999/xlink" width="1920" zoomAndPan="magnify" viewBox="0 0 1440 809.999993" height="1080" preserveAspectRatio="xMidYMid meet" version="1.0"><defs><clipPath id="7d9e669d3c"><path d="M 605 315 L 835 315 L 835 495.75 L 605 495.75 Z M 605 315 " clip-rule="nonzero"/></clipPath></defs><g clip-path="url(#7d9e669d3c)"><path fill="#ff0000" d="M 829.605469 397.582031 L 616.488281 315.613281 C 613.03125 314.285156 609.113281 315.445312 606.929688 318.421875 C 604.746094 321.417969 604.835938 325.5 607.148438 328.390625 L 668.621094 405.234375 L 607.148438 482.078125 C 604.835938 484.96875 604.746094 489.050781 606.929688 492.042969 C 608.511719 494.199219 610.988281 495.398438 613.550781 495.398438 C 614.53125 495.398438 615.527344 495.222656 616.488281 494.855469 L 829.605469 412.886719 C 832.769531 411.671875 834.859375 408.628906 834.859375 405.234375 C 834.859375 401.839844 832.769531 398.796875 829.605469 397.582031 Z M 829.605469 397.582031 " fill-opacity="1" fill-rule="nonzero"/></g></svg>